<svg xmlns="http://www.w3.org/2000/svg" width="1024" height="1024" viewBox="0 0 1024 1024">
<defs>
 <radialGradient id="bg" cx="50%" cy="42%" r="72%"><stop offset="0" stop-color="#20263a"/><stop offset=".58" stop-color="#0d1120"/><stop offset="1" stop-color="#05070e"/></radialGradient>
 <linearGradient id="pencil" x1="0" y1="1" x2="1" y2="0"><stop stop-color="#f2dfff"/><stop offset=".48" stop-color="#b7b9ff"/><stop offset="1" stop-color="#bff3ff"/></linearGradient>
 <linearGradient id="swoosh" x1="0" y1="0" x2="1" y2="0"><stop stop-color="#c96cff"/><stop offset=".5" stop-color="#d8b8ff"/><stop offset="1" stop-color="#73e8ff"/></linearGradient>
 <filter id="glow" x="-50%" y="-50%" width="200%" height="200%"><feGaussianBlur stdDeviation="18" result="b"/><feMerge><feMergeNode in="b"/><feMergeNode in="SourceGraphic"/></feMerge></filter>
 <filter id="soft" x="-30%" y="-30%" width="160%" height="160%"><feGaussianBlur stdDeviation="5"/></filter>
</defs>
<rect x="42" y="42" width="940" height="940" rx="190" fill="url(#bg)" stroke="#737b9b" stroke-opacity=".45" stroke-width="4"/>
<rect x="52" y="52" width="920" height="920" rx="180" fill="none" stroke="#b9c5ff" stroke-opacity=".12" stroke-width="18"/>
<g transform="rotate(-43 512 505)" filter="url(#glow)">
 <path d="M265 420 L610 420 L675 505 L610 590 L265 590 Z" fill="url(#pencil)"/>
 <path d="M610 420 L735 505 L610 590 Z" fill="#e8e7ff"/>
 <path d="M735 505 L785 505 L735 505 Z" fill="#ffffff"/>
 <rect x="595" y="420" width="24" height="170" rx="10" fill="#0a0d18" opacity=".9"/>
 <path d="M785 455 Q825 505 785 555 L735 505 Z" fill="url(#pencil)"/>
</g>
<path d="M300 730 C410 805 520 760 610 700 C700 640 805 625 905 720" fill="none" stroke="#8d6cff" stroke-opacity=".45" stroke-width="48" stroke-linecap="round" filter="url(#soft)"/>
<path d="M300 730 C410 805 520 760 610 700 C700 640 805 625 905 720" fill="none" stroke="url(#swoosh)" stroke-width="34" stroke-linecap="round" filter="url(#glow)"/>
</svg>